<?xml version="1.0" encoding="UTF-8"?>
<svg width="16px" height="16px" viewBox="0 0 16 16" version="1.1" xmlns="http://www.w3.org/2000/svg" xmlns:xlink="http://www.w3.org/1999/xlink">
    <!-- Generator: Sketch 41 (35326) - http://www.bohemiancoding.com/sketch -->
    <title>note</title>
    <desc>Created with Sketch.</desc>
    <defs></defs>
    <g id="Welcome" stroke="none" stroke-width="1" fill="none" fill-rule="evenodd">
        <g id="note">
            <rect id="Rectangle-26" x="0" y="0" width="16" height="16"></rect>
            <g id="Shape">
                <path d="M3.15447431,8.32895434 C3.15447431,10.5006186 4.93321047,12.1896907 7.07996099,12.1896907 C9.28804725,12.1896907 11.0054477,10.4402945 11.0054477,8.32895434 C11.0054477,6.15729013 9.22671151,4.46821796 7.07996099,4.46821796 C4.93321047,4.46821796 3.15447431,6.21761414 3.15447431,8.32895434 L3.15447431,8.32895434 Z" fill="#5EBCC3"></path>
                <path d="M7.87732547,12.7326068 C5.05588193,12.7326068 2.72512421,10.4402945 2.72512421,7.66539028 C2.72512421,4.89048602 5.05588193,2.59817379 7.87732547,2.59817379 C10.698769,2.59817379 13.0295267,4.89048602 13.0295267,7.66539028 C13.0295267,10.4402945 10.7601047,12.7326068 7.87732547,12.7326068 Z M7.87732547,3.44270987 C5.54656775,3.44270987 3.58382442,5.31275406 3.58382442,7.66539028 C3.58382442,9.95770252 5.48523203,11.8880707 7.87732547,11.8880707 C10.2080832,11.8880707 12.1708265,10.0180265 12.1708265,7.66539028 C12.1708265,5.31275406 10.2694189,3.44270987 7.87732547,3.44270987 Z M9.53339017,14.3010309 L6.28259651,14.3010309 C6.0372536,14.3010309 5.85324641,14.1200589 5.85324641,13.8787629 C5.85324641,13.6374669 6.0372536,13.3961708 6.28259651,13.3961708 L9.53339017,13.3961708 C9.77873308,13.3961708 9.96274028,13.5771429 9.96274028,13.8184389 C9.96274028,14.0597349 9.77873308,14.3010309 9.53339017,14.3010309 Z M8.5520185,15.9901031 L7.20263245,15.9901031 C6.95728954,15.9901031 6.77328235,15.8091311 6.77328235,15.5678351 C6.77328235,15.326539 6.95728954,15.145567 7.20263245,15.145567 L8.5520185,15.145567 C8.79736141,15.145567 8.9813686,15.326539 8.9813686,15.5678351 C8.9813686,15.7488071 8.79736141,15.9901031 8.5520185,15.9901031 Z M7.87732547,1.93460972 C7.63198256,1.93460972 7.44797536,1.75363769 7.44797536,1.51234167 L7.44797536,0.426509575 C7.44797536,0.185213559 7.63198256,0.00424153402 7.87732547,0.00424153402 C8.12266838,0.00424153402 8.30667557,0.185213559 8.30667557,0.426509575 L8.30667557,1.45201767 C8.30667557,1.75363769 8.12266838,1.93460972 7.87732547,1.93460972 L7.87732547,1.93460972 Z M3.89050308,3.32206186 C3.76783161,3.32206186 3.64516017,3.26173785 3.5224887,3.14108983 L2.9091314,2.29655375 C2.78645994,2.11558172 2.78645994,1.8139617 3.03180287,1.6933137 C3.21581006,1.57266568 3.5224887,1.57266568 3.64516015,1.81396172 L4.25851745,2.6584978 C4.38118891,2.83946982 4.38118891,3.14108985 4.13584599,3.26173785 C4.07451026,3.26173785 4.01317452,3.32206186 3.89050308,3.32206186 Z M1.49840963,6.70020619 L1.37573818,6.70020619 L0.333030776,6.39858616 C0.0876878658,6.33826215 -0.0349835975,6.09696614 0.0263521342,5.8556701 C0.0876878658,5.61437409 0.333030776,5.49372607 0.578373686,5.55405008 L1.62108109,5.8556701 C1.866424,5.91599411 1.98909546,6.15729013 1.92775973,6.39858616 C1.866424,6.57955819 1.68241682,6.70020619 1.49840963,6.70020619 L1.49840963,6.70020619 Z M14.5015842,6.45891017 C14.317577,6.45891017 14.1335699,6.33826215 14.0722341,6.15729013 C14.0108984,5.91599411 14.1335699,5.67469808 14.3789128,5.61437409 L15.4216202,5.31275405 C15.6669631,5.25243004 15.912306,5.37307805 15.9736417,5.61437409 C16.0349775,5.8556701 15.912306,6.09696614 15.6669631,6.15729013 L14.6242557,6.45891017 L14.5015842,6.45891017 L14.5015842,6.45891017 Z M11.9868193,3.14108983 C11.9254836,3.14108983 11.8028121,3.14108983 11.7414764,3.08076584 C11.5574692,2.96011782 11.4961335,2.6584978 11.618805,2.47752577 L12.2321622,1.63298969 C12.3548337,1.45201767 12.6615124,1.39169367 12.8455195,1.51234167 C13.0295267,1.63298969 13.0908625,1.93460972 12.968191,2.11558174 L12.3548337,2.96011782 C12.2321622,3.08076584 12.1094908,3.14108985 11.9868193,3.14108983 L11.9868193,3.14108983 Z" fill="#387B83"></path>
            </g>
        </g>
    </g>
</svg>