<?xml version="1.0" encoding="UTF-8"?>
<svg width="17px" height="17px" viewBox="0 0 17 17" version="1.1" xmlns="http://www.w3.org/2000/svg" xmlns:xlink="http://www.w3.org/1999/xlink">
    <!-- Generator: Sketch 41 (35326) - http://www.bohemiancoding.com/sketch -->
    <title>刷新</title>
    <desc>Created with Sketch.</desc>
    <defs></defs>
    <g id="Welcome" stroke="none" stroke-width="1" fill="none" fill-rule="evenodd">
        <g id="刷新">
            <rect id="Rectangle-26" x="0" y="0" width="17" height="17"></rect>
            <path d="M14.7395859,6.30953241 L15.6931885,7.51210523 L16.6608838,8.72407314 C16.8816687,9.00122859 16.8393907,9.40991544 16.5528402,9.6307003 C16.4213088,9.7340464 16.2709872,9.7716268 16.1112705,9.7622317 L14.7724687,9.7622317 C14.5000108,11.1714967 13.7624955,12.4163475 12.7384295,13.3417648 C11.5875298,14.3658307 10.0655236,15 8.39319575,15 C7.51945144,15 6.68328753,14.8214931 5.91288933,14.4973621 C5.11430582,14.1685336 4.40027821,13.6893835 3.80368936,13.0927947 C3.55002165,12.8438245 3.55002165,12.4351377 3.80368936,12.18147 C4.06205461,11.9278023 4.46134636,11.9278023 4.71971161,12.18147 C5.19886172,12.6653176 5.77196283,13.0505167 6.41082963,13.3135795 C7.02151114,13.5672472 7.69326079,13.7034762 8.39319575,13.7034762 C9.73199751,13.7034762 10.9580581,13.2055359 11.888173,12.3740695 C12.639781,11.6929248 13.1987894,10.7909952 13.4524572,9.7622317 L12.2921623,9.7622317 C11.9257534,9.7622317 11.6485979,9.48977379 11.6485979,9.13275999 C11.6485979,8.96834574 11.6955734,8.83211679 11.7801293,8.72407314 L12.7478246,7.51210523 L13.7202175,6.30013731 C13.9410024,6.01828431 14.3402941,5.97600636 14.6221471,6.19679121 C14.6597275,6.22497651 14.7020055,6.26725446 14.7395859,6.30953241 Z M2.06888412,10.6904676 C2.09706942,10.7327455 2.13464982,10.7656284 2.17692777,10.7985112 C2.45408323,11.0192961 2.85807253,10.9770181 3.08355493,10.6998627 L4.05125024,9.48789477 L5.0236431,8.27592686 L5.014248,8.27592686 C5.0988039,8.16788321 5.15987205,8.03165426 5.15987205,7.87193756 C5.15987205,7.51492376 4.8639264,7.2283732 4.51161015,7.2283732 L3.33722264,7.2283732 C3.60028544,6.19491219 4.14050369,5.28828503 4.9109019,4.58835008 C5.81283151,3.78506902 7.02479942,3.29652381 8.39648404,3.29652381 C9.08702389,3.29652381 9.73998335,3.43275276 10.3506649,3.68642047 C10.9848341,3.95418082 11.5579352,4.33937992 12.0464804,4.81853003 C12.3001481,5.06750018 12.708835,5.06750018 12.9578051,4.80913493 C13.2067753,4.55546723 13.2067753,4.14678037 12.94841,3.89781022 C12.3471236,3.30591891 11.6283985,2.82207126 10.8486052,2.49324275 C10.0876021,2.1691118 9.2467406,2 8.39648404,2 C6.69127337,2 5.1739647,2.61537906 4.04185514,3.64414252 C3.01778923,4.56016478 2.29906408,5.80971309 2.01721107,7.2283732 L0.68780441,7.2283732 C0.537482808,7.2189781 0.373068556,7.2659536 0.236839605,7.3692997 C-0.0309207476,7.59008456 -0.0825937982,7.99407386 0.138191054,8.27592686 L1.10118881,9.48789477 L2.06888412,10.6904676 Z" id="Combined-Shape" fill="#EDF2F5"></path>
        </g>
    </g>
</svg>