<?xml version="1.0" encoding="UTF-8"?>
<svg width="16px" height="16px" viewBox="0 0 16 16" version="1.1" xmlns="http://www.w3.org/2000/svg" xmlns:xlink="http://www.w3.org/1999/xlink">
    <!-- Generator: Sketch 41 (35326) - http://www.bohemiancoding.com/sketch -->
    <title>查看</title>
    <desc>Created with Sketch.</desc>
    <defs></defs>
    <g id="Welcome" stroke="none" stroke-width="1" fill="none" fill-rule="evenodd">
        <g id="查看">
            <rect id="Rectangle-26" x="0" y="0" width="16" height="16"></rect>
            <path d="M11.5146444,11.5049068 L11.5146444,11.5049068 L11.5049068,11.5146444 C10.9547356,12.0502092 10.2974515,12.4932674 9.58174211,12.7951312 C8.88063903,13.0823887 8.1016356,13.2527957 7.29828832,13.2527957 C6.49007227,13.2527957 5.71593762,13.0823887 5.01970331,12.7951312 C4.29425637,12.4932674 3.63697223,12.0502092 3.08193229,11.5049068 C2.5366299,10.9547356 2.08870293,10.2925827 1.79170787,9.56713579 L1.77710156,9.53305439 C1.48984405,8.84655763 1.33891213,8.09189806 1.33891213,7.29341955 C1.33891213,6.47546596 1.49958159,5.70620008 1.79170787,5.00996577 C2.08870293,4.2893876 2.52689235,3.63210346 3.08193229,3.07219475 C4.16279954,1.99619627 5.65264359,1.32917459 7.29828832,1.32917459 C8.1016356,1.32917459 8.88063903,1.49471282 9.58174211,1.77710156 C10.3023203,2.07896539 10.9596044,2.52202358 11.5146444,3.07219475 L11.543857,3.10627615 C12.0842906,3.65157855 12.5127425,4.2893876 12.8048688,5.00996577 L12.8194751,5.03917839 C13.1018638,5.7354127 13.2527957,6.49494104 13.2527957,7.29341955 C13.2527957,8.09189806 13.1018638,8.86116394 12.8048688,9.56713579 C12.5127425,10.2974515 12.0648155,10.9547356 11.5146444,11.5049068 M15.7991632,14.844884 L12.907113,11.9528338 C13.3696463,11.3929251 13.7542792,10.7599848 14.0415367,10.0783568 C14.3920882,9.22145302 14.5917079,8.2720426 14.5917079,7.29341955 C14.5917079,6.31966527 14.4018258,5.38486116 14.056143,4.53769494 L14.0415367,4.493876 C13.6812476,3.61262838 13.140814,2.83362495 12.4932674,2.16660327 L12.459186,2.1276531 C11.7872955,1.46550019 10.9790795,0.910460251 10.0978319,0.540433625 L10.0880943,0.540433625 C9.23119057,0.180144542 8.27691137,0 7.29828832,0 C5.28261696,0 3.45682769,0.808216052 2.13739064,2.1276531 C1.47036896,2.79467478 0.925066565,3.59802206 0.559908711,4.50361354 C0.194750856,5.36538608 0,6.30505896 0,7.29341955 C0,8.26230506 0.194750856,9.1922404 0.540433625,10.0394066 L0.559908711,10.0783568 C0.925066565,10.969342 1.47036896,11.777558 2.13739064,12.4494485 L2.14712819,12.4494485 C2.8092811,13.1213389 3.61749715,13.6569038 4.51335108,14.0366679 C5.37025485,14.3872195 6.3147965,14.5868391 7.29828832,14.5868391 C8.28664892,14.5868391 9.23119057,14.3872195 10.0978319,14.0366679 C10.7697223,13.7445417 11.3977938,13.3696463 11.9577025,12.9022442 L14.8546215,15.7942944 C15.1175352,16.0523393 15.5411183,16.0523393 15.7991632,15.7894256 C16.0669456,15.526512 16.0669456,15.1029289 15.7991632,14.844884" fill="#EDF2F5"></path>
        </g>
    </g>
</svg>