<?xml version="1.0" encoding="UTF-8"?>
<svg width="42px" height="42px" viewBox="0 0 42 42" version="1.1" xmlns="http://www.w3.org/2000/svg" xmlns:xlink="http://www.w3.org/1999/xlink">
    <!-- Generator: Sketch 41 (35326) - http://www.bohemiancoding.com/sketch -->
    <title>并行式 copy</title>
    <desc>Created with Sketch.</desc>
    <defs></defs>
    <g id="Page-1" stroke="none" stroke-width="1" fill="none" fill-rule="evenodd">
        <g id="并行式-copy">
            <rect id="Rectangle-5" x="0" y="0" width="42" height="42"></rect>
            <g id="Group-3" transform="translate(1.000000, 1.000000)" fill="#9FC2F8">
                <path d="M20,1.17858071e-15 C8.9596603,1.17858071e-15 0,8.9596603 0,20 C0,31.0403397 8.9596603,40 20,40 C31.0403397,40 40,31.0403397 40,20 C40,8.9596603 31.0403397,0 20,0 L20,1.17858071e-15 Z M17.6220716,28.3610024 C17.6220716,29.7746425 18.7701573,30.9221857 20.1844659,30.9221857 C21.5987744,30.9221857 22.7468602,29.7746425 22.7468602,28.3610024 C22.7468602,26.9473623 21.5987744,25.7998192 20.1844659,25.7998192 C19.9681599,25.7998192 19.7684928,25.8330813 19.5688257,25.8829745 C17.7718219,22.6565488 14.6104263,17.0019884 14.5272317,16.9022021 C14.2942868,16.4864256 13.7618412,16.3700081 13.3458681,16.602843 C11.7152536,17.5674445 9.61874913,17.0352505 8.65369153,15.4054067 C8.18780166,14.6237468 8.05469027,13.6924075 8.27099628,12.8109613 C8.48730229,11.9295151 9.05302571,11.1644863 9.85169406,10.7154477 C11.4823086,9.75084623 13.578813,10.2830402 14.5272317,11.912884 C14.7601767,12.3286605 15.2926222,12.445078 15.7085953,12.2122431 C16.1245684,11.9794083 16.2410409,11.4472144 16.008096,11.0314379 C14.6104263,8.58667203 11.4490308,7.78838114 9.01974786,9.23528337 C7.83838425,9.91715683 6.98979913,11.0480689 6.65702065,12.3785537 C6.32424217,13.6924075 6.52390925,15.0894165 7.22274406,16.2702218 C8.17116273,17.9000657 9.88497191,18.7981429 11.6486979,18.7981429 C12.2310602,18.7981429 12.7801447,18.6983565 13.3458681,18.5154149 L18.1378782,26.864207 C17.8050998,27.2799835 17.6220716,27.8121775 17.6220716,28.3610024 Z M23.4290561,24.3861791 L28.1545105,16.2036975 C29.5688191,16.336746 30.8167384,15.3056203 30.9498497,13.8919802 C30.9498497,13.8088249 30.9664887,13.7256696 30.9664887,13.6425143 C30.9664887,12.2288742 29.8184029,11.081331 28.4040944,11.081331 C26.9897858,11.081331 25.8417001,12.2288742 25.8417001,13.6425143 C25.8417001,14.3243877 26.1079229,14.9729991 26.5904516,15.4552998 C24.8932814,18.3657353 23.1794722,21.2761709 21.4989409,24.1866064 C21.265996,24.6023829 21.4157463,25.1179457 21.8317194,25.3507806 C23.4956118,26.2488578 24.111252,28.3443714 23.1961111,30.0074774 C22.7634991,30.8057683 22.0313865,31.4044864 21.1661624,31.6539523 C20.3009384,31.9200493 19.3525197,31.8202629 18.5538513,31.3712243 C17.755183,30.9388168 17.1561817,30.2070501 16.9065979,29.342235 C16.6403751,28.4774199 16.7402086,27.5294494 17.1894596,26.7311586 C17.4224045,26.3153821 17.2726542,25.7998192 16.8566811,25.5669844 C16.440708,25.3341495 15.9249013,25.483829 15.6919564,25.8996056 C15.0263994,27.0970419 14.893288,28.4940509 15.2759833,29.8079047 C15.6586786,31.1217584 16.5405415,32.2194084 17.7385441,32.8680197 C18.4872956,33.2837962 19.3358808,33.5 20.1844659,33.5 C20.6669947,33.5 21.1661624,33.4334758 21.6486912,33.2837962 C22.9465273,32.9012818 24.0613352,32.0198357 24.7102532,30.8223993 C25.8916168,28.6104683 25.3092545,25.9162366 23.4290561,24.3861791 Z M31.8816295,9.86726365 C30.8832941,8.93592429 29.5521801,8.45362355 28.1877884,8.50351673 C26.8233966,8.55340991 25.5421994,9.15212807 24.6104197,10.1499917 C23.9115849,10.9150204 23.445695,11.8629909 23.2959447,12.8941166 L14.0946197,12.8941166 C13.7784801,11.8130977 12.7635058,11.0647 11.6320589,11.0647 C10.2177504,11.0647 9.06966463,12.2122431 9.06966463,13.6258832 C9.06966463,15.0395233 10.2177504,16.1870665 11.6320589,16.1870665 C12.6803111,16.1870665 13.6120909,15.5550862 14.0114251,14.6071158 C17.6220716,14.6237468 24.0779741,14.6570089 24.1611687,14.6570089 C24.6270586,14.6403779 24.9931149,14.2412324 24.976476,13.7755628 C24.9431982,12.8608545 25.2593377,11.9794083 25.8749779,11.3141659 C26.4906181,10.6489235 27.3392032,10.249778 28.2543441,10.2165159 C29.1694849,10.1832538 30.0513479,10.4992439 30.7169048,11.1145932 C31.3824618,11.7299424 31.781796,12.5781264 31.8150738,13.4928347 C31.8816295,15.3721445 30.4174042,16.9853574 28.5205668,17.0518816 C28.054677,17.0685127 27.6886206,17.4676581 27.6886206,17.9333278 C27.7052596,18.3989975 28.0879548,18.7648808 28.5372058,18.7648808 L28.5704836,18.7648808 C31.3991007,18.6484634 33.6120776,16.2535907 33.4956051,13.4263105 C33.4789662,12.0625636 32.8966039,10.798603 31.8816295,9.86726365 Z" id="Combined-Shape"></path>
            </g>
        </g>
    </g>
</svg>