<?xml version="1.0" encoding="UTF-8"?>
<svg width="42px" height="42px" viewBox="0 0 42 42" version="1.1" xmlns="http://www.w3.org/2000/svg" xmlns:xlink="http://www.w3.org/1999/xlink">
    <!-- Generator: Sketch 41 (35326) - http://www.bohemiancoding.com/sketch -->
    <title>时间</title>
    <desc>Created with Sketch.</desc>
    <defs></defs>
    <g id="Page-1" stroke="none" stroke-width="1" fill="none" fill-rule="evenodd">
        <g id="时间">
            <rect id="Rectangle-5" x="0" y="0" width="42" height="42"></rect>
            <path d="M22.7465389,20.0751303 L22.7465389,13.651892 C22.7465389,12.6849058 21.9627263,11.9053531 21,11.9053531 C20.0372737,11.9053531 19.2534611,12.6849058 19.2534611,13.6476322 L19.2534611,21.0043947 C19.2534611,21.2211509 19.2928447,21.4284894 19.3647988,21.619741 C19.4913619,22.0214676 19.7628702,22.3791304 20.1565495,22.6060986 L30.4526092,28.5528505 C31.2832801,29.0342136 32.3525027,28.7488036 32.8338658,27.9138728 L32.8338658,27.9138728 C33.315229,27.0789421 33.029819,26.0097195 32.1948882,25.5283563 L22.7465389,20.0751303 Z M1,21.0001348 C0.999951835,28.1454787 4.81191977,34.7480694 10.9999611,38.3207552 C17.1880024,41.8934411 24.8119976,41.8934411 31.0000389,38.3207552 C37.1880802,34.7480694 41.0000482,28.1454787 41,21.0001348 C41.0000482,13.8547909 37.1880802,7.25220025 31.0000389,3.67951439 C24.8119976,0.106828535 17.1880024,0.106828535 10.9999611,3.67951439 C4.81191977,7.25220025 0.999951835,13.8547909 1,21.0001348 L1,21.0001348 Z" id="Combined-Shape" fill="#9FC2F8"></path>
        </g>
    </g>
</svg>