<?xml version="1.0" encoding="UTF-8"?>
<svg width="42px" height="42px" viewBox="0 0 42 42" version="1.1" xmlns="http://www.w3.org/2000/svg" xmlns:xlink="http://www.w3.org/1999/xlink">
    <!-- Generator: Sketch 41 (35326) - http://www.bohemiancoding.com/sketch -->
    <title>脚本数量</title>
    <desc>Created with Sketch.</desc>
    <defs></defs>
    <g id="Page-1" stroke="none" stroke-width="1" fill="none" fill-rule="evenodd">
        <g id="脚本数量">
            <rect id="Rectangle-5" x="0" y="0" width="42" height="42"></rect>
            <g id="jiaoben" transform="translate(21.500000, 20.500000) scale(-1, -1) translate(-21.500000, -20.500000) translate(1.000000, 0.000000)" fill="#9FC2F8">
                <path d="M0,20.4412607 C-0.000323818055,27.7441122 3.90688329,34.4923634 10.2497383,38.1438823 C16.5925934,41.7954012 24.4074066,41.7954012 30.7502617,38.1438823 C37.0931167,34.4923634 41.0003238,27.7441122 41,20.4412607 C41.0003238,13.1384093 37.0931167,6.39015813 30.7502617,2.7386392 C24.4074066,-0.912879734 16.5925934,-0.912879734 10.2497383,2.7386392 C3.90688329,6.39015813 -0.000323818055,13.1384093 4.55191441e-15,20.4412607 L0,20.4412607 Z M11.1316944,20.4912644 L15.7696733,25.1470281 L13.9212034,27.0025862 L9.249616,22.3805599 L7.40114613,20.5250018 L13.8875949,14.0136801 L15.7696733,15.8692381 L11.1316944,20.4912644 Z M29.7844357,20.4912644 L25.1464568,25.1470281 L26.9949266,27.0025862 L31.6329055,22.3468224 L33.4813754,20.4912644 L27.0285351,13.9799427 L25.1464568,15.8692381 L29.7844357,20.4912644 L29.7844357,20.4912644 Z M20.6093035,15.3969143 L23.2307698,15.3969143 L20.5420864,27.1375358 L17.9206201,27.1375358 L20.6093035,15.3969143 L20.6093035,15.3969143 Z" id="Combined-Shape"></path>
            </g>
        </g>
    </g>
</svg>