<?xml version="1.0" standalone="no"?><!DOCTYPE svg PUBLIC "-//W3C//DTD SVG 1.1//EN" "http://www.w3.org/Graphics/SVG/1.1/DTD/svg11.dtd"><svg t="1571888681007" class="icon" viewBox="0 0 1024 1024" version="1.1" xmlns="http://www.w3.org/2000/svg" p-id="2671" width="16" height="16" xmlns:xlink="http://www.w3.org/1999/xlink"><defs><style type="text/css"></style></defs><path d="M774.2 434.3c0-187.9-152.3-340.2-340.1-340.2-187.9 0-340.2 152.3-340.2 340.2 0 187.8 152.3 340.1 340.1 340.1 76.4 0 146.1-26.1 202.9-68.5l151.6 151.5 68.6-68.7-151.5-151.5c42.5-56.8 68.6-126.5 68.6-202.9z m-340.1 243c-134.2 0-242.9-108.7-242.9-242.9s108.7-243 242.9-243c134.1 0 242.9 108.7 242.9 243 0 134.1-108.8 242.9-242.9 242.9z" p-id="2672" fill="#ffffff"></path></svg>