<?xml version="1.0" encoding="UTF-8"?>
<svg width="42px" height="42px" viewBox="0 0 42 42" version="1.1" xmlns="http://www.w3.org/2000/svg" xmlns:xlink="http://www.w3.org/1999/xlink">
    <!-- Generator: Sketch 41 (35326) - http://www.bohemiancoding.com/sketch -->
    <title>并发数</title>
    <desc>Created with Sketch.</desc>
    <defs></defs>
    <g id="Page-1" stroke="none" stroke-width="1" fill="none" fill-rule="evenodd">
        <g id="并发数">
            <rect id="Rectangle-5" x="0" y="0" width="42" height="42"></rect>
            <path d="M2.50903807,13.8192022 L19.6013077,22.3653371 C20.1043204,22.6163353 20.6063169,22.8683497 21.1093296,22.8683497 C21.6123423,22.8683497 22.1143388,22.6173515 22.6173515,22.3653371 L39.7096211,13.8192022 C40.4636321,13.3161895 40.9666448,12.5621786 40.9666448,11.8081677 C40.9666448,11.0541567 40.4636321,10.3001458 39.7096211,9.79713307 L22.6173515,1.25099825 C22.1143388,1 21.6113261,1 21.1093296,1 C20.6063169,1 20.1043204,1.25099825 19.6013077,1.50301269 L2.25702364,9.54715101 C1.50301269,10.0501637 1,10.8041746 1,11.8091838 C1.00101619,12.5621786 1.75604332,13.3161895 2.50903807,13.8192022 L2.50903807,13.8192022 Z M38.4546299,18.3442841 C37.4496207,18.3442841 36.946608,18.8472968 36.946608,18.8472968 L21.3623602,26.3884224 L5.77709629,18.8462806 C5.02308535,18.5952823 4.52007265,18.5952823 4.01705996,18.5952823 C2.00602538,18.3442841 1.25201444,19.6013077 1.25201444,21.1093296 C1.25201444,21.8633406 1.75502713,22.6173515 2.50903807,23.1203642 L19.6013077,31.666499 C20.1043204,31.9174973 20.6063169,32.1695117 21.1093296,32.1695117 C21.6123423,32.1695117 22.1143388,31.9185134 22.6173515,31.666499 L39.7096211,23.3713624 C40.4636321,22.8683497 40.9666448,22.1143388 40.9666448,21.1093296 C41.2196754,19.6002915 39.9626518,18.3442841 38.4546299,18.3442841 L38.4546299,18.3442841 Z M38.4546299,27.3924154 C37.4496207,27.3924154 36.946608,27.8954281 36.946608,27.8954281 L21.3623602,35.4365537 L5.77709629,27.8954281 C5.2740836,27.6444298 4.77208709,27.6444298 4.2690744,27.6444298 C2.25803982,27.3934316 1.50402888,28.649439 1.50402888,30.1584771 C1.50402888,30.9124881 2.00704157,31.666499 2.76105251,32.1695117 L19.6023239,40.7156465 C20.1053366,40.9666448 20.6073331,41.2186592 21.1103458,41.2186592 C21.6133585,41.2186592 22.115355,40.967661 22.6183677,40.7156465 L39.7106373,32.42051 C40.4646483,31.9174973 40.967661,31.1634863 40.967661,30.1584771 C41.2196754,28.649439 39.9626518,27.3924154 38.4546299,27.3924154 L38.4546299,27.3924154 Z" id="Shape" fill="#9FC2F8"></path>
        </g>
    </g>
</svg>