<?xml version="1.0" encoding="UTF-8"?>
<svg width="42px" height="42px" viewBox="0 0 42 42" version="1.1" xmlns="http://www.w3.org/2000/svg" xmlns:xlink="http://www.w3.org/1999/xlink">
    <!-- Generator: Sketch 41 (35326) - http://www.bohemiancoding.com/sketch -->
    <title>测试总数</title>
    <desc>Created with Sketch.</desc>
    <defs></defs>
    <g id="Page-1" stroke="none" stroke-width="1" fill="none" fill-rule="evenodd">
        <g id="测试总数">
            <rect id="Rectangle-5" x="0" y="0" width="42" height="42"></rect>
            <g transform="translate(1.000000, 2.000000)" fill="#9FC2F8">
                <path d="M0,27.0000004 L0,31.5833334 C0,35.1583334 8.95238093,38 20,38 C31.0476191,38 40,35.1583334 40,31.5833334 L40,27 C40,30.575 31.0476191,33.4166667 20,33.4166667 C8.95238093,33.4166667 0,30.575 0,27 Z" id="Combined-Shape"></path>
                <path d="M0.199483006,19 L0,19 L0,23.5833333 C0,27.1583334 8.95238093,30 20,30 C31.0476191,30 40,27.1583333 40,23.5833333 L40,19 L39.800517,19 C38.4235307,22.1320972 30.0847249,24.5 20,24.5 C9.91527508,24.5 1.57646927,22.1320972 0.199483006,19 Z" id="Combined-Shape"></path>
                <path d="M0.199483019,10 L0,10 L0,14.5833333 C0,18.1583333 8.95238093,21 20,21 C31.0476191,21 40,18.1583333 40,14.5833333 L40,10 L39.800517,10 C38.4235307,13.1320972 30.0847249,15.5 20,15.5 C9.91527511,15.5 1.57646933,13.1320972 0.199483019,10 Z" id="Combined-Shape"></path>
                <path d="M2.61695427e-15,6.49999995 C-1.06473442e-07,8.82222629 3.81197834,10.9680519 9.99999991,12.1291651 C16.1880215,13.2902783 23.8119785,13.2902783 30.0000001,12.1291651 C36.1880217,10.9680519 40.0000001,8.82222629 40,6.49999995 C40,2.9101491 31.045695,2.83503377e-16 20,0 C8.954305,-2.83503377e-16 1.45386348e-15,2.9101491 0,6.49999995 L2.61695427e-15,6.49999995 Z" id="Shape"></path>
            </g>
        </g>
    </g>
</svg>