<?xml version="1.0" encoding="UTF-8"?>
<svg width="16px" height="16px" viewBox="0 0 16 16" version="1.1" xmlns="http://www.w3.org/2000/svg" xmlns:xlink="http://www.w3.org/1999/xlink">
    <!-- Generator: Sketch 41 (35326) - http://www.bohemiancoding.com/sketch -->
    <title>更新</title>
    <desc>Created with Sketch.</desc>
    <defs></defs>
    <g id="Welcome" stroke="none" stroke-width="1" fill="none" fill-rule="evenodd">
        <g id="更新">
            <rect id="Rectangle-26" x="0" y="0" width="16" height="16"></rect>
            <g transform="translate(1.000000, 1.000000)" id="Shape">
                <path d="M5.48118445,1.09654361 C5.48118444,1.48830093 5.69018447,1.85029961 6.02945625,2.04617827 C6.36872803,2.24205693 6.78672811,2.24205693 7.12599989,2.04617827 C7.46527167,1.85029961 7.67427171,1.48830093 7.67427169,1.09654361 C7.67427169,0.490939295 7.18333239,-6.34770455e-09 6.57772807,-6.34770458e-09 C5.97212375,-6.34770462e-09 5.48118445,0.490939295 5.48118445,1.09654361 L5.48118445,1.09654361 Z" fill="#012959"></path>
                <path d="M2.16049714,3.10404809 C2.41231388,3.40415159 2.80510546,3.54711603 3.19091109,3.47908809 C3.57671672,3.41106015 3.89692334,3.14237489 4.03091223,2.77424344 C4.16490112,2.40611199 4.09231617,1.99446229 3.84049943,1.69435878 C3.58868269,1.39425527 3.19589111,1.25129082 2.81008548,1.31931877 C2.42427985,1.38734671 2.10407322,1.65603197 1.97008433,2.02416342 C1.83609544,2.39229487 1.9086804,2.80394458 2.16049714,3.10404809 L2.16049714,3.10404809 Z" fill="#06356C"></path>
                <path d="M0.90645524,6.77560344 C1.50285907,6.88076553 2.07159061,6.48253542 2.1767527,5.88613159 C2.28191478,5.28972776 1.88368467,4.72099622 1.28728085,4.61583413 C0.69087702,4.51067205 0.122145476,4.90890216 0.0169833892,5.50530598 C-0.088178698,6.10170981 0.310051414,6.67044135 0.90645524,6.77560344 Z" fill="#0E4280"></path>
                <path d="M0.807567643,9.99326815 C1.00344629,10.3325399 1.36544497,10.54154 1.75720227,10.54154 C2.14895957,10.54154 2.51095825,10.3325399 2.7068369,9.99326815 C2.90271556,9.65399638 2.90271556,9.23599631 2.70683691,8.89672454 C2.51095826,8.55745275 2.14895958,8.34845271 1.75720228,8.34845271 C1.36544497,8.34845271 1.00344629,8.55745274 0.807567635,8.89672452 C0.611688982,9.2359963 0.611688985,9.65399637 0.807567643,9.99326815 L0.807567643,9.99326815 Z" fill="#1B5293"></path>
                <path d="M4.29905632,12.9220372 C4.86813822,13.1291661 5.49738139,12.8357451 5.70451027,12.2666632 C5.91163914,11.6975813 5.61821823,11.0683382 5.04913632,10.8612093 C4.48005441,10.6540804 3.85081124,10.9475013 3.64368237,11.5165832 C3.4365535,12.0856651 3.72997441,12.7149083 4.29905632,12.9220372 Z" fill="#277DE1"></path>
                <path d="M7.44983624,12.2669821 C7.65696511,12.836064 8.28620828,13.1294849 8.85529019,12.922356 C9.4243721,12.7152272 9.71779301,12.085984 9.51066413,11.5169021 C9.37667525,11.1487706 9.05646862,10.8800854 8.67066299,10.8120574 C8.28485736,10.7440295 7.89206579,10.8869939 7.64024904,11.1870974 C7.3884323,11.4872009 7.31584735,11.8988506 7.44983624,12.2669821 L7.44983624,12.2669821 Z" fill="#3883D9"></path>
                <path d="M10.8490574,10.3942452 C11.1883292,10.5901238 11.6063292,10.5901238 11.945601,10.3942452 C12.2848728,10.1983665 12.4938728,9.83636785 12.4938728,9.44461055 C12.4938728,9.05285324 12.2848728,8.69085456 11.945601,8.49497591 C11.6063292,8.29909725 11.1883292,8.29909724 10.8490574,8.49497589 C10.5097856,8.69085454 10.3007856,9.05285323 10.3007856,9.44461054 C10.3007856,9.83636785 10.5097856,10.1983665 10.8490574,10.3942452 L10.8490574,10.3942452 Z" fill="#4990E2"></path>
                <path d="M10.9787217,5.88629085 C11.0467496,6.27209648 11.3154349,6.59230312 11.6835663,6.72629202 C12.0516978,6.86028091 12.4633475,6.78769596 12.763451,6.53587921 C13.0635545,6.28406246 13.2065189,5.89127087 13.138491,5.50546524 C13.070463,5.1196596 12.8017778,4.79945296 12.4336463,4.66546407 C12.0655149,4.53147518 11.6538652,4.60406013 11.3537617,4.85587688 C11.0536582,5.10769362 10.9106937,5.50048521 10.9787217,5.88629085 L10.9787217,5.88629085 Z" fill="#55A4FF"></path>
                <path d="M9.45020837,3.23859755 C9.75031187,3.4904143 10.1619616,3.56299925 10.530093,3.42901037 C10.8982245,3.29502148 11.1669098,2.97481485 11.2349377,2.58900921 C11.3029656,2.20320358 11.1600012,1.810412 10.8598977,1.55859526 C10.3959779,1.16932031 9.70432683,1.22983193 9.31505188,1.69375176 C8.92577693,2.15767158 8.98628855,2.8493226 9.45020837,3.23859755 L9.45020837,3.23859755 Z" fill="#001C3E"></path>
            </g>
        </g>
    </g>
</svg>